<?xml version="1.0" standalone="no"?>
<!DOCTYPE svg PUBLIC "-//W3C//DTD SVG 20010904//EN"
 "http://www.w3.org/TR/2001/REC-SVG-20010904/DTD/svg10.dtd">
<svg version="1.0" xmlns="http://www.w3.org/2000/svg"
 width="1800.000000pt" height="360.000000pt" viewBox="0 0 1800.000000 360.000000"
 preserveAspectRatio="xMidYMid meet">
<g transform="translate(0.000000,360.000000) scale(0.100000,-0.100000)"
fill="#000000" stroke="none">
<path d="M1060 2349 c-14 -4 -39 -7 -57 -8 -32 -1 -68 -14 -151 -55 -76 -37
-92 -47 -92 -57 0 -5 -5 -9 -10 -9 -14 0 -110 -101 -110 -116 0 -6 -7 -17 -15
-24 -8 -7 -15 -22 -15 -34 0 -12 -5 -27 -12 -34 -38 -38 -39 -342 -2 -373 8
-6 14 -22 14 -36 0 -13 7 -26 15 -29 8 -4 15 -13 15 -21 0 -32 179 -193 214
-193 8 0 17 -4 21 -10 8 -13 148 -80 167 -80 9 0 18 -7 22 -15 3 -8 12 -15 19
-15 8 0 34 -11 58 -25 24 -13 54 -29 65 -34 12 -5 38 -29 58 -54 33 -40 36
-50 36 -105 0 -58 -2 -62 -42 -102 -72 -71 -214 -101 -301 -65 -20 8 -48 15
-63 15 -14 0 -38 6 -52 14 -15 7 -47 23 -72 35 -25 12 -63 33 -85 46 -93 56
-139 15 -152 -135 -10 -119 36 -208 127 -245 8 -4 27 -13 42 -21 14 -8 37 -14
51 -14 13 0 30 -7 37 -15 8 -10 30 -15 61 -15 27 0 67 -7 90 -16 32 -14 60
-16 135 -11 52 4 103 11 114 17 10 5 38 10 62 10 24 0 53 7 64 15 10 8 31 15
45 15 15 0 32 7 39 15 7 8 19 15 26 15 8 0 47 25 88 54 109 81 178 191 210
332 18 83 20 133 5 189 -6 22 -14 58 -18 80 -10 47 -23 73 -73 142 -41 54
-131 136 -169 153 -13 5 -32 14 -41 20 -10 5 -26 15 -35 20 -10 6 -25 13 -33
16 -8 3 -19 8 -25 10 -5 2 -17 8 -25 13 -8 5 -33 17 -55 26 -22 10 -47 22 -55
27 -8 4 -22 11 -30 14 -57 23 -91 45 -132 88 -44 45 -48 53 -48 98 0 151 185
204 395 112 89 -39 125 -57 131 -65 10 -17 60 -9 81 14 25 26 36 114 26 219
-5 60 -10 71 -41 103 -19 19 -43 35 -52 35 -10 0 -23 7 -30 15 -7 8 -19 15
-27 15 -9 0 -36 7 -62 14 -106 34 -281 46 -351 25z m240 -59 c102 -20 136 -29
165 -44 17 -9 35 -16 40 -16 6 0 23 -10 38 -23 27 -21 29 -26 31 -120 4 -138
1 -141 -106 -89 -46 23 -91 42 -99 42 -8 0 -21 6 -27 12 -8 8 -53 14 -126 16
-97 4 -119 1 -157 -16 -90 -42 -123 -90 -123 -181 0 -52 5 -75 23 -104 42 -68
85 -96 341 -216 84 -39 170 -89 218 -127 41 -33 99 -105 111 -138 2 -6 11 -27
20 -46 24 -53 23 -290 -2 -345 -39 -86 -54 -108 -97 -153 -41 -43 -132 -112
-146 -112 -3 0 -20 -6 -37 -14 -96 -43 -149 -51 -328 -51 -114 0 -181 4 -190
11 -8 6 -31 14 -51 18 -20 4 -50 13 -65 21 -15 8 -34 15 -40 15 -7 0 -13 4
-13 9 0 5 -11 12 -24 15 -39 10 -59 52 -64 138 -6 102 1 128 35 128 14 0 48
-13 75 -30 26 -16 52 -30 56 -30 4 -1 25 -9 47 -20 22 -11 49 -19 61 -20 11 0
26 -6 32 -12 9 -9 52 -13 140 -13 109 0 133 3 172 22 52 24 110 72 110 89 0 7
4 14 10 16 12 4 31 103 26 132 -3 11 -7 33 -10 47 -11 52 -131 152 -236 196
-113 47 -292 145 -334 183 -57 52 -109 128 -133 197 -19 54 -22 250 -5 287 6
11 21 44 33 71 26 55 158 194 186 195 4 1 26 9 48 20 22 11 51 19 66 20 14 0
29 4 35 9 18 19 218 26 294 11z"/>
<path d="M14263 2349 c-10 -4 -39 -8 -65 -8 -26 -1 -49 -5 -52 -10 -3 -5 -23
-12 -43 -16 -21 -3 -47 -12 -58 -19 -11 -7 -32 -16 -47 -20 -16 -3 -28 -11
-28 -16 0 -6 -9 -10 -20 -10 -11 0 -20 -5 -20 -10 0 -6 -10 -14 -22 -19 -24
-9 -115 -84 -136 -113 -7 -9 -20 -25 -30 -34 -16 -17 -34 -43 -48 -74 -4 -8
-13 -19 -21 -23 -7 -4 -13 -16 -13 -26 0 -10 -7 -24 -15 -31 -8 -7 -15 -20
-15 -29 0 -9 -5 -22 -11 -28 -6 -6 -14 -26 -19 -44 -4 -19 -13 -47 -18 -64
-34 -100 -42 -169 -42 -352 0 -136 4 -205 15 -246 8 -32 15 -68 15 -81 0 -12
7 -31 15 -42 8 -10 15 -31 15 -45 0 -15 7 -32 15 -39 8 -7 15 -20 15 -30 0
-10 6 -23 14 -29 8 -7 17 -23 20 -36 4 -14 11 -25 16 -25 6 0 10 -7 10 -15 0
-9 7 -18 15 -21 8 -4 15 -11 15 -16 0 -11 115 -126 145 -146 11 -6 30 -16 42
-21 11 -6 24 -15 28 -20 3 -6 14 -11 24 -11 10 0 24 -7 31 -15 7 -8 24 -15 39
-15 15 0 35 -6 46 -14 56 -38 462 -37 532 2 12 7 31 12 42 12 17 0 52 14 101
42 8 4 25 12 36 17 12 5 38 29 58 54 l36 44 0 116 c0 64 -5 127 -11 140 -6 13
-25 30 -44 39 -31 14 -34 13 -66 -13 -19 -16 -42 -29 -52 -29 -10 0 -20 -7
-23 -15 -4 -8 -14 -15 -24 -15 -10 0 -23 -7 -30 -15 -7 -8 -21 -15 -32 -15
-10 0 -33 -7 -49 -16 -38 -19 -253 -15 -313 7 -49 18 -156 121 -181 174 -10
22 -24 52 -32 67 -7 14 -13 44 -13 65 0 22 -7 48 -15 59 -21 28 -21 302 0 330
8 10 15 37 15 60 0 22 7 49 15 60 8 10 15 29 15 40 0 12 7 27 15 34 8 7 15 17
15 22 0 20 92 128 109 128 5 0 14 7 21 15 7 8 22 15 34 15 12 0 31 7 42 15 26
20 209 20 244 0 14 -8 37 -14 53 -15 15 0 27 -3 27 -8 0 -4 24 -18 53 -32 28
-13 56 -30 60 -37 4 -7 14 -13 21 -13 8 0 16 -7 20 -15 3 -9 18 -15 35 -15 22
0 37 10 60 37 30 37 31 40 31 146 0 111 -13 158 -49 181 -7 4 -21 16 -30 25
-22 22 -133 74 -201 94 -103 31 -288 45 -337 26z m222 -59 c22 -5 63 -14 90
-20 50 -11 93 -28 150 -57 79 -40 94 -72 95 -204 0 -48 -5 -82 -14 -94 -13
-18 -16 -17 -67 17 -47 31 -101 61 -162 90 -61 30 -310 29 -340 -1 -6 -6 -17
-11 -24 -11 -18 0 -114 -68 -136 -97 -10 -13 -24 -29 -31 -36 -21 -21 -75
-137 -82 -176 -4 -20 -12 -42 -18 -50 -15 -20 -15 -443 0 -462 7 -8 15 -30 19
-49 22 -113 127 -243 237 -295 40 -18 135 -36 203 -38 45 -1 167 19 193 32 9
5 40 19 67 32 28 12 64 32 80 44 47 35 52 36 69 19 23 -22 21 -166 -2 -214
-17 -34 -85 -89 -110 -90 -8 0 -28 -6 -45 -14 -96 -43 -149 -51 -328 -51 -115
0 -181 4 -190 11 -8 6 -32 15 -53 18 -46 9 -160 62 -195 91 -73 61 -96 83
-135 134 -38 49 -54 79 -96 176 -40 94 -63 240 -64 400 -1 121 18 300 33 320
5 5 12 27 15 49 4 21 11 46 16 55 5 9 21 41 35 71 43 89 51 102 111 168 67 75
140 131 210 161 27 12 58 26 69 31 85 38 310 60 400 40z"/>
<path d="M3420 2323 c-87 -30 -80 32 -80 -660 0 -523 2 -619 15 -650 8 -19 15
-48 15 -62 0 -15 7 -36 15 -47 8 -10 15 -26 15 -35 0 -9 7 -22 15 -29 8 -7 15
-19 15 -27 0 -49 197 -233 249 -233 10 0 24 -7 31 -15 7 -8 22 -15 34 -15 12
0 28 -6 34 -12 7 -7 41 -16 75 -19 34 -4 99 -13 145 -20 74 -12 93 -11 166 4
46 9 104 17 128 17 24 0 53 7 64 15 10 8 29 15 40 15 12 0 27 7 34 15 7 8 21
15 31 15 44 0 161 96 235 192 24 31 44 63 44 71 0 8 7 20 15 27 8 7 15 21 15
32 0 11 5 29 12 41 7 12 15 47 20 77 4 30 12 75 17 100 6 26 10 272 11 588 0
621 5 585 -84 615 -106 35 -290 15 -322 -35 -5 -7 -12 -269 -15 -583 -4 -314
-10 -588 -14 -610 -14 -82 -74 -172 -129 -196 -12 -5 -28 -13 -36 -18 -38 -23
-141 -32 -218 -20 -43 7 -79 15 -82 18 -3 3 -22 17 -43 31 -46 30 -107 119
-107 155 0 14 -7 42 -15 62 -13 30 -15 120 -15 592 0 431 -3 561 -12 573 -38
46 -222 65 -318 31z m257 -59 l22 -6 3 -589 c2 -454 6 -591 16 -601 6 -6 12
-21 12 -33 0 -43 112 -183 148 -185 6 0 12 -4 12 -10 0 -5 17 -12 38 -16 20
-4 43 -11 50 -17 21 -17 181 -12 236 7 62 21 153 82 161 107 4 10 10 19 14 19
4 0 17 21 28 47 12 27 27 62 34 78 11 24 14 145 16 604 1 316 4 580 7 588 5
11 34 13 143 11 l138 -3 0 -622 c0 -484 -3 -625 -12 -635 -7 -6 -13 -20 -13
-31 0 -18 -27 -85 -57 -142 -23 -43 -153 -167 -199 -188 -143 -68 -226 -86
-404 -86 -114 0 -173 7 -260 29 -221 54 -366 224 -403 470 -5 36 -11 315 -14
621 -4 503 -2 558 12 573 13 13 39 16 133 16 64 0 127 -3 139 -6z"/>
<path d="M6803 2329 c-58 -17 -94 -89 -58 -119 8 -7 15 -20 15 -30 0 -10 7
-23 15 -30 8 -7 15 -18 15 -25 0 -6 11 -32 25 -56 14 -24 27 -51 31 -59 3 -8
10 -22 15 -30 5 -8 12 -22 15 -30 3 -8 10 -22 15 -30 5 -8 12 -22 15 -30 3 -8
9 -22 14 -30 10 -17 45 -88 54 -110 6 -15 12 -26 34 -65 7 -11 15 -27 18 -35
3 -8 10 -22 15 -30 5 -8 12 -22 15 -30 3 -8 10 -22 15 -30 5 -8 12 -22 15 -30
3 -8 10 -22 15 -30 5 -8 12 -22 15 -30 3 -8 9 -22 14 -30 5 -8 28 -53 51 -100
23 -47 46 -86 51 -88 4 -2 8 -148 8 -324 0 -284 2 -323 17 -349 10 -16 23 -29
29 -29 6 0 17 -7 24 -15 10 -12 38 -15 136 -15 105 0 129 3 163 21 22 11 43
28 48 37 4 9 10 164 13 343 4 293 7 329 23 346 9 11 17 27 17 36 0 9 4 18 9
21 5 4 19 27 31 54 12 26 26 54 31 62 5 8 12 22 15 30 3 8 10 22 15 30 5 8 12
22 15 30 3 8 10 22 15 30 5 8 12 22 15 30 3 8 9 22 14 30 5 8 21 38 35 65 14
28 29 57 34 65 26 44 71 142 71 154 0 7 7 19 15 26 8 7 15 21 15 32 0 10 7 21
15 24 8 4 15 17 15 29 0 13 4 26 10 30 14 9 79 145 86 182 9 44 -2 83 -24 83
-9 0 -26 7 -36 15 -15 11 -50 15 -143 15 -106 0 -128 -3 -163 -21 -23 -12 -46
-31 -51 -43 -5 -12 -13 -28 -18 -36 -5 -8 -17 -33 -26 -55 -10 -22 -22 -47
-27 -55 -4 -8 -11 -22 -14 -30 -10 -26 -36 -84 -51 -112 -7 -14 -13 -33 -13
-41 0 -8 -7 -20 -15 -27 -8 -7 -15 -21 -15 -32 0 -11 -7 -26 -15 -34 -8 -9
-15 -25 -15 -37 0 -12 -7 -31 -15 -41 -8 -11 -15 -27 -15 -37 0 -9 -7 -30 -15
-45 -8 -16 -15 -37 -15 -46 0 -10 -4 -18 -8 -18 -15 0 -32 24 -32 45 0 12 -7
30 -15 41 -8 10 -15 27 -15 37 0 11 -6 31 -14 45 -8 15 -23 47 -34 72 -11 25
-32 70 -46 101 -14 31 -26 61 -26 66 0 6 -7 16 -15 23 -8 7 -15 23 -15 35 0
12 -7 28 -15 35 -8 7 -15 20 -15 29 -1 9 -16 43 -34 76 -48 90 -85 105 -241
104 -66 0 -134 -5 -152 -10z m1311 -70 c6 -5 -90 -207 -248 -522 l-257 -513
-2 -315 -2 -314 -82 -13 c-69 -12 -92 -11 -145 0 l-63 14 -3 309 c-1 169 -6
313 -11 319 -4 6 -11 23 -15 39 -3 15 -10 27 -15 27 -5 0 -12 14 -16 30 -4 16
-10 30 -15 30 -5 0 -11 14 -15 30 -4 17 -11 30 -16 30 -5 0 -9 5 -9 11 0 13
-41 101 -51 109 -4 3 -10 16 -14 30 -4 14 -10 27 -14 30 -16 13 -321 638 -321
658 0 22 2 22 150 22 l149 0 26 -27 c14 -15 25 -32 25 -37 0 -5 14 -39 31 -75
32 -69 35 -77 94 -206 40 -88 44 -97 75 -170 12 -27 25 -59 30 -70 39 -87 50
-116 50 -127 0 -19 21 -38 41 -38 13 0 23 19 40 73 12 39 26 79 30 87 4 8 15
31 23 50 35 84 59 138 81 185 47 101 84 181 105 230 38 89 55 116 75 120 60
13 274 9 289 -6z"/>
<path d="M8888 2320 c-53 -34 -57 -47 -57 -170 0 -96 3 -118 17 -135 40 -45
55 -47 264 -46 l198 1 0 -692 c1 -537 3 -696 13 -708 32 -38 76 -50 190 -50
95 0 119 3 160 22 l47 23 0 701 c0 660 1 702 18 705 9 2 98 2 197 -1 182 -5
205 -3 239 24 31 25 56 175 38 224 -6 15 -13 39 -16 54 -13 58 -7 57 -674 60
-529 3 -614 1 -634 -12z m1260 -67 c4 -10 7 -60 7 -111 0 -72 -3 -95 -15 -102
-8 -5 -115 -10 -237 -10 -123 0 -224 -1 -225 -2 -2 -2 -5 -325 -8 -718 l-5
-715 -70 -12 c-93 -16 -224 2 -226 31 0 6 0 312 1 680 0 368 -2 684 -6 703
l-6 33 -221 0 c-269 0 -257 -6 -257 121 0 66 4 91 16 103 14 14 85 16 630 16
576 0 615 -1 622 -17z"/>
<path d="M12424 2327 c-43 -16 -84 -57 -84 -85 0 -13 -7 -30 -15 -38 -8 -9
-15 -27 -15 -42 0 -15 -7 -36 -15 -46 -8 -11 -15 -28 -15 -39 0 -10 -6 -31
-14 -45 -16 -33 -36 -88 -43 -122 -3 -14 -12 -34 -19 -45 -8 -11 -14 -31 -14
-45 0 -14 -7 -34 -15 -44 -8 -11 -15 -29 -15 -41 0 -12 -7 -30 -15 -41 -8 -10
-15 -30 -15 -44 0 -14 -7 -34 -15 -44 -8 -11 -15 -31 -15 -45 0 -14 -7 -35
-15 -45 -8 -11 -15 -31 -15 -45 0 -14 -7 -35 -15 -45 -8 -11 -15 -29 -15 -41
0 -12 -7 -30 -15 -41 -8 -10 -15 -30 -15 -44 0 -14 -7 -34 -15 -44 -8 -11 -15
-28 -15 -39 0 -10 -6 -31 -14 -45 -16 -33 -36 -88 -43 -122 -3 -14 -12 -34
-19 -45 -8 -11 -14 -31 -14 -45 0 -15 -7 -35 -15 -46 -8 -10 -15 -31 -15 -45
0 -15 -7 -32 -15 -39 -8 -7 -15 -27 -15 -44 0 -17 -7 -40 -15 -50 -8 -11 -15
-34 -15 -51 0 -17 -5 -36 -12 -43 -19 -19 8 -84 44 -105 41 -23 269 -25 288
-2 7 8 19 15 27 15 15 0 63 97 63 128 0 9 7 26 15 36 8 11 15 32 15 46 0 14 7
35 15 46 8 10 15 33 15 50 0 64 4 65 336 62 l299 -3 3 -30 c2 -16 10 -38 18
-49 8 -11 14 -32 14 -46 0 -15 7 -35 15 -46 8 -10 15 -29 15 -40 0 -12 7 -35
15 -50 8 -16 15 -37 15 -46 0 -9 16 -33 37 -53 l36 -35 148 0 c132 0 152 2
183 21 34 20 36 24 36 73 0 30 -6 60 -15 72 -8 10 -15 31 -15 45 0 14 -7 34
-15 45 -8 10 -15 31 -15 45 0 14 -7 34 -15 45 -8 10 -15 30 -15 44 0 14 -7 34
-15 44 -8 11 -15 29 -15 41 0 12 -7 30 -15 41 -8 10 -15 29 -15 41 0 12 -6 34
-14 50 -8 15 -23 55 -34 88 -11 33 -26 76 -32 95 -7 19 -18 48 -26 63 -8 16
-14 36 -14 45 0 9 -7 30 -15 46 -8 15 -15 36 -15 45 0 10 -7 26 -15 37 -8 10
-15 31 -15 45 0 14 -7 34 -15 45 -8 10 -15 30 -15 42 0 13 -6 36 -14 50 -16
33 -35 85 -46 131 -5 18 -13 38 -19 44 -6 6 -11 20 -11 30 0 10 -6 31 -14 45
-16 33 -35 85 -46 131 -5 18 -13 38 -19 44 -6 6 -11 20 -11 30 0 10 -7 33 -16
50 -9 18 -20 39 -24 47 -3 8 -26 25 -50 38 -41 20 -57 22 -200 21 -92 0 -168
-5 -186 -12z m374 -63 c12 -4 22 -11 22 -18 0 -6 6 -23 14 -38 8 -15 17 -42
21 -60 4 -18 11 -37 15 -43 4 -5 18 -43 30 -84 12 -40 29 -85 36 -100 8 -14
14 -34 14 -44 0 -9 4 -25 9 -35 5 -9 19 -46 31 -82 12 -36 26 -74 30 -85 4
-11 18 -49 30 -85 12 -36 25 -72 30 -80 4 -9 11 -30 14 -48 4 -17 12 -34 17
-37 5 -4 9 -16 9 -28 0 -12 6 -34 14 -49 8 -15 17 -41 21 -59 4 -19 11 -40 15
-49 5 -8 18 -44 30 -80 12 -36 25 -72 30 -80 4 -9 11 -31 15 -50 4 -19 11 -39
14 -45 4 -5 18 -41 30 -80 13 -38 27 -74 32 -79 5 -6 9 -19 9 -29 0 -10 6 -33
14 -50 8 -18 21 -57 31 -87 16 -51 16 -55 -1 -67 -10 -7 -32 -13 -48 -14 -17
-1 -56 -3 -86 -5 -68 -5 -153 11 -173 34 -8 9 -18 33 -22 52 -4 19 -11 40 -15
45 -4 6 -11 26 -15 45 -4 19 -11 40 -15 45 -4 6 -11 26 -15 45 -4 19 -11 40
-15 45 -4 6 -11 24 -14 42 -4 17 -13 37 -21 43 -9 8 -113 11 -341 11 l-329 -1
-17 -22 c-9 -13 -20 -39 -23 -58 -4 -19 -10 -39 -14 -45 -4 -5 -17 -44 -30
-85 -12 -41 -26 -82 -30 -90 -5 -9 -12 -30 -15 -48 -6 -26 -14 -34 -49 -44
-52 -16 -214 -13 -234 4 -18 15 -12 78 11 123 9 17 16 36 16 43 0 7 4 20 9 30
5 9 19 46 31 82 12 36 26 74 30 85 4 11 18 49 30 85 12 36 25 72 30 80 4 9 11
30 15 49 4 18 13 44 21 59 8 15 14 37 14 49 0 12 5 25 10 28 6 3 10 14 10 23
0 9 6 29 14 44 8 15 17 42 21 60 4 18 11 38 15 43 4 6 18 44 30 85 13 41 27
80 31 85 3 6 17 44 29 85 12 41 26 80 30 85 4 6 11 25 15 43 4 18 13 45 21 60
8 15 14 35 14 44 0 9 4 19 9 22 5 3 12 21 15 40 4 20 13 48 21 63 8 15 15 38
15 50 0 12 4 24 9 28 5 3 13 20 16 38 14 66 19 67 214 67 97 0 186 -3 199 -6z"/>
<path d="M12567 1973 c-3 -5 -8 -24 -12 -43 -4 -19 -11 -39 -15 -45 -4 -5 -11
-26 -15 -45 -4 -19 -11 -41 -16 -50 -4 -8 -31 -87 -60 -175 -28 -88 -55 -168
-60 -177 -5 -10 -9 -26 -9 -35 0 -10 -6 -30 -14 -45 -8 -15 -17 -41 -21 -59
-4 -19 -13 -42 -19 -52 -23 -38 8 -43 241 -45 120 0 235 2 256 5 33 5 37 9 37
34 0 15 -4 30 -9 34 -5 3 -13 20 -17 37 -3 18 -10 39 -14 48 -4 8 -31 89 -61
180 -29 91 -56 169 -61 175 -4 5 -8 18 -8 30 0 11 -6 32 -14 47 -8 15 -17 42
-21 60 -4 18 -11 38 -15 43 -4 6 -10 27 -14 48 -6 31 -11 37 -31 37 -13 0 -26
-3 -28 -7z m43 -140 c0 -16 7 -41 15 -57 8 -15 15 -38 15 -50 0 -11 7 -34 15
-50 8 -15 15 -35 15 -43 0 -8 6 -29 14 -46 8 -18 16 -43 19 -57 8 -39 49 -154
79 -218 11 -24 18 -45 15 -48 -2 -3 -94 -5 -203 -5 -185 0 -199 2 -198 18 2
22 22 79 40 115 8 14 14 33 14 42 0 8 6 30 14 48 22 52 67 190 73 223 3 17 9
35 13 40 5 6 11 28 15 50 12 63 45 91 45 38z"/>
<path d="M1838 2313 c-16 -8 -28 -22 -28 -31 0 -9 -7 -26 -15 -36 -23 -31 -20
-162 5 -210 31 -62 49 -67 259 -66 102 0 192 1 199 0 10 0 12 -140 12 -685 -1
-756 -5 -709 64 -746 30 -16 56 -19 155 -19 93 0 123 3 135 15 8 8 19 15 23
15 5 0 19 14 31 30 l23 30 -1 676 c-1 372 1 678 3 681 3 2 95 4 204 4 219 -1
224 0 257 66 25 50 22 196 -5 239 -11 19 -29 39 -39 44 -12 6 -247 10 -637 9
-519 -1 -622 -3 -645 -16z m1270 -60 c9 -23 9 -183 0 -205 -7 -16 -27 -18
-231 -18 -176 0 -227 -3 -236 -13 -8 -10 -12 -218 -13 -718 l-3 -704 -76 -13
c-64 -11 -88 -11 -145 0 l-69 14 -5 714 -5 715 -232 3 c-227 2 -232 3 -239 24
-8 28 -8 193 0 207 5 8 188 11 627 11 581 0 620 -1 627 -17z"/>
<path d="M5260 2320 c-8 -5 -24 -10 -34 -10 -22 0 -41 -21 -62 -68 -12 -28
-14 -148 -14 -818 l0 -786 25 -44 c14 -24 33 -44 41 -44 9 0 22 -7 30 -15 13
-13 57 -15 277 -14 144 0 285 5 312 10 28 5 84 13 125 17 41 4 85 13 97 20 12
7 34 12 48 12 15 0 39 6 53 14 15 7 50 24 77 36 123 56 263 194 319 315 11 22
23 47 28 55 9 17 9 17 32 85 9 28 16 60 16 72 0 12 7 48 15 80 18 68 20 336 4
398 -6 22 -14 60 -19 85 -12 67 -62 194 -81 206 -5 3 -9 12 -9 21 0 14 -40 72
-79 115 -9 9 -21 23 -27 30 -22 26 -76 66 -136 103 -9 5 -38 21 -65 33 -26 13
-61 30 -76 38 -16 8 -43 14 -61 14 -18 0 -37 5 -43 11 -6 6 -71 17 -145 25
-154 16 -626 19 -648 4z m640 -59 c101 -13 194 -32 205 -42 5 -5 16 -9 25 -9
8 -1 33 -9 55 -20 22 -11 45 -19 52 -20 6 0 13 -4 15 -8 2 -4 21 -19 43 -32
53 -32 131 -106 157 -150 12 -19 25 -37 28 -40 4 -3 17 -27 29 -55 13 -27 27
-57 31 -65 4 -9 11 -31 15 -50 4 -19 11 -40 16 -46 4 -5 13 -72 20 -148 8
-106 8 -169 -1 -274 -7 -75 -16 -141 -20 -147 -4 -5 -11 -27 -14 -49 -4 -21
-11 -46 -16 -55 -5 -9 -19 -38 -31 -66 -12 -27 -36 -70 -53 -94 -29 -41 -122
-141 -131 -141 -2 0 -23 -13 -47 -29 -38 -25 -78 -45 -153 -76 -94 -39 -246
-53 -587 -54 -275 -1 -289 0 -308 19 -20 20 -20 33 -20 815 l0 796 25 24 24
25 288 -1 c158 0 317 -4 353 -8z"/>
<path d="M5515 2029 c-3 -8 -4 -282 -3 -609 l3 -595 185 0 c151 0 194 3 235
18 164 58 226 122 316 322 15 33 33 185 33 275 0 88 -17 220 -33 255 -6 11
-19 41 -30 67 -23 56 -30 65 -97 132 -70 70 -75 73 -199 127 -45 19 -403 26
-410 8z m330 -54 c22 -8 54 -14 71 -15 17 0 37 -7 44 -15 7 -8 19 -15 27 -15
37 0 173 -136 173 -173 0 -8 7 -20 15 -27 8 -7 15 -23 15 -37 0 -13 7 -40 15
-60 18 -42 22 -377 5 -388 -5 -3 -12 -28 -16 -55 -4 -27 -13 -55 -20 -61 -8
-6 -14 -19 -14 -29 0 -10 -7 -23 -15 -30 -8 -7 -15 -18 -15 -24 -1 -14 -61
-74 -92 -91 -55 -32 -112 -55 -132 -55 -12 0 -31 -7 -42 -15 -14 -11 -51 -14
-156 -15 l-138 0 0 560 0 560 118 0 c76 0 131 -5 157 -15z"/>
<path d="M10463 2316 c-17 -6 -42 -25 -55 -41 l-23 -29 -3 -801 c-2 -440 0
-819 3 -842 5 -36 11 -44 46 -62 54 -29 253 -31 302 -3 70 38 67 23 66 377
l-1 320 63 3 c46 2 73 -2 98 -15 39 -20 91 -62 91 -74 0 -4 14 -28 30 -52 17
-25 30 -51 30 -59 0 -8 7 -23 15 -34 8 -10 15 -25 15 -31 0 -7 14 -42 30 -76
17 -35 30 -70 30 -78 0 -8 7 -23 15 -33 8 -11 15 -30 15 -42 0 -12 7 -27 15
-34 8 -7 15 -21 15 -30 0 -10 8 -33 17 -52 9 -18 19 -40 23 -48 4 -8 17 -20
29 -26 13 -7 28 -17 34 -23 7 -7 60 -11 147 -11 232 0 257 34 172 240 -7 19
-20 47 -28 62 -8 14 -14 33 -14 41 0 8 -7 20 -15 27 -8 7 -15 23 -15 36 0 12
-7 29 -15 38 -8 8 -15 24 -15 35 0 11 -7 26 -15 35 -8 8 -15 26 -15 39 0 14
-7 27 -15 31 -8 3 -15 17 -15 31 0 14 -7 28 -15 31 -8 4 -15 13 -15 21 0 21
-65 103 -111 139 l-39 32 25 16 c13 9 28 16 33 16 21 0 152 117 152 136 0 8 4
14 10 14 10 0 31 43 61 125 24 66 27 261 4 291 -8 10 -15 31 -15 45 0 15 -7
32 -15 39 -8 7 -15 21 -15 32 0 10 -7 21 -15 24 -8 4 -15 10 -15 14 0 14 -63
80 -77 80 -7 0 -13 5 -13 10 0 6 -10 15 -22 20 -13 6 -43 22 -67 35 -24 14
-53 25 -64 25 -11 0 -28 6 -36 14 -9 8 -64 18 -132 25 -151 15 -633 13 -676
-3z m738 -62 c8 -6 33 -14 55 -18 23 -3 54 -13 70 -21 16 -8 35 -15 42 -15 6
0 12 -3 12 -8 0 -4 16 -16 36 -27 30 -16 72 -58 102 -100 77 -111 83 -339 13
-468 -46 -85 -154 -175 -229 -192 -26 -5 -52 -29 -52 -48 0 -2 22 -18 48 -34
88 -54 146 -147 254 -403 5 -14 16 -38 23 -55 8 -16 20 -46 29 -65 8 -19 24
-56 35 -82 12 -26 21 -54 21 -62 0 -8 5 -18 10 -21 19 -12 10 -36 -17 -46 -16
-6 -66 -13 -112 -15 -109 -5 -187 16 -203 54 -6 15 -17 43 -25 62 -8 19 -18
43 -23 52 -6 10 -10 23 -10 30 0 7 -6 24 -13 38 -7 14 -21 48 -31 75 -31 84
-110 256 -129 280 -29 38 -57 66 -91 91 -37 27 -46 29 -148 33 -69 2 -114 -1
-120 -7 -7 -7 -10 -120 -9 -340 1 -257 -2 -332 -12 -340 -15 -12 -118 -29
-162 -27 -55 3 -115 17 -122 29 -5 6 -7 374 -5 817 3 801 3 806 24 829 l21 22
352 -4 c238 -2 356 -7 366 -14z"/>
<path d="M10751 2036 c-20 -24 -20 -504 1 -518 7 -5 81 -7 163 -5 116 3 157 7
180 20 17 9 35 17 40 17 21 1 102 97 118 140 33 89 11 211 -50 273 -63 65
-104 77 -280 84 -141 5 -160 4 -172 -11z m314 -55 c3 -5 18 -12 33 -16 32 -7
62 -30 86 -67 21 -33 27 -197 7 -219 -6 -8 -19 -23 -29 -35 -42 -50 -118 -74
-254 -81 l-107 -6 -3 212 c-2 117 -1 215 1 217 9 8 260 4 266 -5z"/>
<path d="M15182 2317 c-18 -7 -43 -25 -57 -41 l-25 -29 0 -815 c0 -921 -6
-854 81 -892 46 -19 67 -20 489 -20 438 0 441 0 470 22 18 13 30 31 30 44 0
12 7 27 15 34 20 17 21 129 0 156 -8 10 -15 27 -15 37 0 11 -10 27 -22 38 -21
17 -45 18 -330 19 l-308 0 0 216 0 215 261 -2 261 -2 25 25 c23 24 24 31 24
139 0 91 -3 116 -16 125 -8 6 -15 16 -15 23 0 8 -75 11 -270 11 l-270 0 0 185
0 185 308 0 309 0 23 25 c22 23 24 34 24 140 1 113 0 114 -29 144 l-29 31
-450 -1 c-320 0 -460 -4 -484 -12z m926 -56 c9 -5 16 -38 19 -89 5 -65 3 -86
-11 -106 l-16 -26 -318 -2 -317 -3 0 -230 0 -230 269 -3 c178 -1 274 -6 283
-13 19 -17 18 -182 -2 -199 -11 -9 -88 -12 -282 -14 l-268 -1 -3 -254 c-2
-181 1 -258 9 -268 10 -11 65 -13 319 -11 252 2 310 0 324 -11 14 -12 16 -30
14 -110 l-3 -96 -462 -3 -462 -2 -25 24 -26 23 0 789 0 789 25 28 26 27 447 0
c246 0 453 -4 460 -9z"/>
<path d="M16545 2320 c-3 -5 -15 -10 -25 -10 -10 0 -30 -15 -44 -33 l-26 -34
0 -829 c0 -456 4 -834 8 -840 4 -5 23 -20 43 -32 32 -19 51 -22 153 -22 108 0
121 2 162 26 l44 26 0 334 0 334 65 0 c46 0 78 -6 104 -20 44 -22 98 -73 112
-104 5 -12 13 -28 18 -36 5 -8 17 -33 26 -55 10 -22 24 -53 31 -68 8 -16 14
-35 14 -42 0 -7 6 -26 14 -42 7 -15 20 -44 28 -63 8 -19 23 -52 32 -73 9 -21
16 -46 16 -56 0 -10 7 -24 15 -31 8 -7 15 -23 15 -36 0 -15 15 -35 44 -58 l43
-36 147 0 c143 0 148 1 181 26 33 25 33 27 28 82 -3 31 -12 64 -19 73 -8 8
-14 25 -14 36 0 11 -7 26 -15 33 -8 7 -15 21 -15 30 0 10 -7 32 -15 49 -8 17
-22 45 -30 62 -8 17 -15 35 -15 40 0 10 -44 110 -93 209 -20 40 -57 91 -98
132 -71 73 -71 72 -9 102 65 30 157 115 166 152 3 13 12 25 20 28 8 3 14 16
14 28 0 13 7 32 15 42 12 16 15 54 15 172 0 153 -2 162 -42 234 -4 8 -13 26
-18 38 -13 30 -117 132 -134 132 -8 0 -19 7 -26 15 -7 8 -19 15 -28 15 -8 0
-23 6 -31 13 -54 45 -237 66 -588 66 -178 1 -284 -3 -288 -9z m730 -68 c17 -5
63 -21 103 -33 39 -13 72 -27 72 -30 0 -4 9 -11 20 -14 52 -16 143 -134 155
-199 4 -20 11 -39 16 -42 5 -3 9 -51 9 -107 0 -102 -11 -152 -48 -227 -38 -77
-164 -183 -234 -197 -57 -11 -67 -54 -17 -72 59 -21 147 -130 199 -248 12 -26
25 -57 30 -68 5 -11 18 -42 30 -70 12 -27 25 -59 30 -70 37 -84 50 -115 50
-124 0 -6 5 -11 10 -11 6 0 10 -8 10 -17 0 -10 6 -29 13 -43 19 -36 26 -66 18
-79 -10 -16 -149 -33 -216 -25 -100 11 -98 9 -144 116 -12 26 -21 52 -21 58 0
5 -4 18 -10 28 -17 31 -50 111 -50 122 0 5 -4 18 -10 28 -5 9 -17 35 -26 57
-33 80 -87 185 -95 185 -4 0 -10 9 -14 20 -3 10 -29 36 -58 57 l-51 38 -116 0
-115 0 -3 -342 c-3 -392 11 -349 -114 -362 -65 -7 -92 -5 -175 14 l-23 5 0
808 0 807 26 29 27 28 346 -4 c207 -3 358 -9 376 -16z"/>
<path d="M16822 2038 c-9 -12 -12 -77 -10 -269 l3 -254 155 0 c140 0 160 2
202 22 113 54 162 128 163 243 0 116 -43 189 -142 240 -35 18 -65 22 -200 27
-134 5 -160 4 -171 -9z m313 -57 c3 -5 18 -12 34 -16 75 -16 128 -143 101
-242 -15 -52 -47 -103 -65 -103 -6 0 -16 -5 -23 -12 -22 -22 -146 -47 -234
-48 l-88 0 0 215 0 215 134 0 c74 0 137 -4 141 -9z"/>
</g>
</svg>
